<svg width="32" height="32" viewBox="0 0 32 32" xmlns="http://www.w3.org/2000/svg">
  <defs>
    <linearGradient id="blueGradient" x1="0%" y1="0%" x2="100%" y2="0%">
      <stop offset="0%" style="stop-color:#87CEEB;stop-opacity:1" />
      <stop offset="100%" style="stop-color:#4169E1;stop-opacity:1" />
    </linearGradient>
  </defs>
  
  <!-- Black background -->
  <rect width="32" height="32" fill="#000000"/>
  
  <!-- Blue abstract shape - fluid wave-like design with smooth curves -->
  <path d="M3 20 C5 16 7 18 9 20 C11 22 13 18 15 14 C17 10 19 12 21 14 C23 16 25 12 27 10 L27 24 C25 26 23 24 21 22 C19 20 17 24 15 28 C13 32 11 28 9 24 C7 20 5 24 3 28 Z" 
        fill="url(#blueGradient)" 
        stroke="none"/>
  
  <!-- Additional subtle curve for depth -->
  <path d="M5 22 C7 20 9 21 11 22 C13 23 15 21 17 19 C19 17 21 18 23 19 C25 20 27 18 29 17 L29 25 C27 26 25 25 23 24 C21 23 19 25 17 27 C15 29 13 27 11 25 C9 23 7 25 5 27 Z" 
        fill="url(#blueGradient)" 
        opacity="0.7"/>
</svg>
